<svg width="192" height="192" viewBox="0 0 192 192" xmlns="http://www.w3.org/2000/svg">
  <defs>
    <linearGradient id="grad1" x1="0%" y1="0%" x2="100%" y2="100%">
      <stop offset="0%" style="stop-color:#2563eb;stop-opacity:1" />
      <stop offset="100%" style="stop-color:#1d4ed8;stop-opacity:1" />
    </linearGradient>
  </defs>
  
  <!-- Fondo circular -->
  <circle cx="96" cy="96" r="88" fill="url(#grad1)" stroke="#1e40af" stroke-width="4"/>
  
  <!-- Edificios -->
  <rect x="40" y="80" width="20" height="60" fill="white" opacity="0.9"/>
  <rect x="70" y="60" width="20" height="80" fill="white" opacity="0.9"/>
  <rect x="100" y="70" width="20" height="70" fill="white" opacity="0.9"/>
  
  <!-- Ventanas -->
  <rect x="44" y="88" width="8" height="8" fill="#1e40af"/>
  <rect x="56" y="88" width="8" height="8" fill="#1e40af"/>
  <rect x="74" y="68" width="8" height="8" fill="#1e40af"/>
  <rect x="86" y="68" width="8" height="8" fill="#1e40af"/>
  <rect x="104" y="78" width="8" height="8" fill="#1e40af"/>
  <rect x="116" y="78" width="8" height="8" fill="#1e40af"/>
  
  <!-- Sol -->
  <circle cx="140" cy="56" r="12" fill="#fbbf24"/>
  <g fill="#fbbf24">
    <line x1="140" y1="40" x2="140" y2="32" stroke="#fbbf24" stroke-width="3"/>
    <line x1="140" y1="80" x2="140" y2="72" stroke="#fbbf24" stroke-width="3"/>
    <line x1="124" y1="56" x2="116" y2="56" stroke="#fbbf24" stroke-width="3"/>
    <line x1="164" y1="56" x2="156" y2="56" stroke="#fbbf24" stroke-width="3"/>
    <line x1="130" y1="42" x2="122" y2="34" stroke="#fbbf24" stroke-width="3"/>
    <line x1="158" y1="70" x2="150" y2="78" stroke="#fbbf24" stroke-width="3"/>
    <line x1="130" y1="70" x2="122" y2="78" stroke="#fbbf24" stroke-width="3"/>
    <line x1="158" y1="42" x2="150" y2="34" stroke="#fbbf24" stroke-width="3"/>
  </g>
</svg>
